ffmpeg started on 2016-12-02 at 17:41:49
Report written to "Output/x264/results/ffmpeg/old_town_cross_2160p50veryslow6000k.log"
Command line:
Tools/ffmpeg/ffmpeg -benchmark -y -i Input/y4m/old_town_cross_2160p50.y4m -c:v libx264 -preset veryslow -b:v 6000k -an Output/x264/encoded/old_town_cross_2160p50veryslow6000k.mkv
ffmpeg version N-82227-gdb23fde Copyright (c) 2000-2016 the FFmpeg developers
  built with gcc 5.4.0 (Ubuntu 5.4.0-6ubuntu1~16.04.2) 20160609
  configuration: --prefix=/home/jaroslav/ffmpeg_build --pkg-config-flags=--static --extra-cflags=-I/home/jaroslav/ffmpeg_build/include --extra-ldflags=-L/home/jaroslav/ffmpeg_build/lib --bindir=/home/jaroslav/bin --enable-gpl --enable-libass --enable-libfdk-aac --enable-libfreetype --enable-libmp3lame --enable-libopus --enable-libtheora --enable-libvorbis --enable-libvpx --enable-libx264 --enable-libx265 --enable-nvenc --enable-libmfx --enable-libxvid --enable-libgsm --enable-libopencore-amrnb --enable-version3 --enable-nonfree
  libavutil      55. 35.100 / 55. 35.100
  libavcodec     57. 66.101 / 57. 66.101
  libavformat    57. 57.100 / 57. 57.100
  libavdevice    57.  2.100 / 57.  2.100
  libavfilter     6. 66.100 /  6. 66.100
  libswscale      4.  3.100 /  4.  3.100
  libswresample   2.  4.100 /  2.  4.100
  libpostproc    54.  2.100 / 54.  2.100
Input #0, yuv4mpegpipe, from 'Input/y4m/old_town_cross_2160p50.y4m':
  Duration: 00:00:10.00, start: 0.000000, bitrate: 4976642 kb/s
    Stream #0:0: Video: rawvideo (I420 / 0x30323449), yuv420p(progressive), 3840x2160, SAR 1:1 DAR 16:9, 50 fps, 50 tbr, 50 tbn, 50 tbc
[libx264 @ 0x3ee4120] using SAR=1/1
[libx264 @ 0x3ee4120] DPB size (16 frames, 518400 mbs) > level limit (5 frames, 184320 mbs)
[libx264 @ 0x3ee4120] using cpu capabilities: MMX2 SSE2Fast SSSE3 SSE4.2 AVX FMA3 AVX2 LZCNT BMI2
[libx264 @ 0x3ee4120] profile High, level 5.2
[libx264 @ 0x3ee4120] 264 - core 148 - H.264/MPEG-4 AVC codec - Copyleft 2003-2016 - http://www.videolan.org/x264.html - options: cabac=1 ref=16 deblock=1:0:0 analyse=0x3:0x133 me=umh subme=10 psy=1 psy_rd=1.00:0.00 mixed_ref=1 me_range=24 chroma_me=1 trellis=2 8x8dct=1 cqm=0 deadzone=21,11 fast_pskip=1 chroma_qp_offset=-2 threads=6 lookahead_threads=1 sliced_threads=0 nr=0 decimate=1 interlaced=0 bluray_compat=0 constrained_intra=0 bframes=8 b_pyramid=2 b_adapt=2 b_bias=0 direct=3 weightb=1 open_gop=0 weightp=2 keyint=250 keyint_min=25 scenecut=40 intra_refresh=0 rc_lookahead=60 rc=abr mbtree=1 bitrate=6000 ratetol=1.0 qcomp=0.60 qpmin=0 qpmax=69 qpstep=4 ip_ratio=1.40 aq=1:1.00
Output #0, matroska, to 'Output/x264/encoded/old_town_cross_2160p50veryslow6000k.mkv':
  Metadata:
    encoder         : Lavf57.57.100
    Stream #0:0: Video: h264 (libx264) (H264 / 0x34363248), yuv420p, 3840x2160 [SAR 1:1 DAR 16:9], q=-1--1, 6000 kb/s, 50 fps, 1k tbn, 50 tbc
    Metadata:
      encoder         : Lavc57.66.101 libx264
    Side data:
      cpb: bitrate max/min/avg: 0/0/6000000 buffer size: 0 vbv_delay: -1
Stream mapping:
  Stream #0:0 -> #0:0 (rawvideo (native) -> h264 (libx264))
Press [q] to stop, [?] for help
frame=   60 fps=0.0 q=0.0 size=       0kB time=00:00:00.00 bitrate=N/A speed=   0x    frame=   72 fps=8.0 q=0.0 size=       0kB time=00:00:00.00 bitrate=N/A speed=   0x    frame=   77 fps=7.6 q=38.0 size=       1kB time=-00:00:00.01 bitrate=N/A speed=N/A    frame=   82 fps=6.9 q=42.0 size=       1kB time=00:00:00.08 bitrate=  72.7kbits/s speed=0.00678x    frame=   88 fps=6.8 q=44.0 size=       1kB time=00:00:00.20 bitrate=  29.3kbits/s speed=0.0156x    frame=   91 fps=6.1 q=44.0 size=       1kB time=00:00:00.26 bitrate=  22.6kbits/s speed=0.0176x    frame=   96 fps=6.2 q=43.0 size=       1kB time=00:00:00.36 bitrate=  16.3kbits/s speed=0.0234x    frame=   97 fps=6.0 q=43.0 size=       1kB time=00:00:00.38 bitrate=  15.5kbits/s speed=0.0237x    frame=  100 fps=5.7 q=40.0 size=       1kB time=00:00:00.44 bitrate=  13.4kbits/s speed=0.0249x    frame=  105 fps=5.5 q=39.0 size=       1kB time=00:00:00.54 bitrate=  10.9kbits/s speed=0.0282x    frame=  108 fps=5.3 q=38.0 size=       1kB time=00:00:00.60 bitrate=   9.8kbits/s speed=0.0295x    frame=  113 fps=5.1 q=38.0 size=       1kB time=00:00:00.70 bitrate=   8.4kbits/s speed=0.0318x    frame=  114 fps=5.0 q=38.0 size=       1kB time=00:00:00.72 bitrate=   8.2kbits/s speed=0.0319x    frame=  117 fps=5.0 q=37.0 size=       1kB time=00:00:00.78 bitrate=   7.5kbits/s speed=0.0335x    frame=  119 fps=5.0 q=38.0 size=       1kB time=00:00:00.82 bitrate=   7.2kbits/s speed=0.0343x    frame=  121 fps=4.9 q=37.0 size=       1kB time=00:00:00.86 bitrate=   6.8kbits/s speed=0.0349x    frame=  122 fps=4.8 q=37.0 size=       1kB time=00:00:00.88 bitrate=   6.7kbits/s speed=0.0345x    frame=  123 fps=4.6 q=37.0 size=       1kB time=00:00:00.90 bitrate=   6.5kbits/s speed=0.034x    frame=  128 fps=4.6 q=37.0 size=       1kB time=00:00:01.00 bitrate=   5.9kbits/s speed=0.0358x    frame=  129 fps=4.5 q=37.0 size=       1kB time=00:00:01.02 bitrate=   5.8kbits/s speed=0.0354x    frame=  131 fps=4.4 q=37.0 size=       1kB time=00:00:01.06 bitrate=   5.5kbits/s speed=0.0355x    frame=  132 fps=4.3 q=37.0 size=       1kB time=00:00:01.08 bitrate=   5.4kbits/s speed=0.0355x    frame=  135 fps=4.3 q=37.0 size=       1kB time=00:00:01.14 bitrate=   5.2kbits/s speed=0.0367x    frame=  136 fps=4.3 q=37.0 size=       1kB time=00:00:01.16 bitrate=   5.1kbits/s speed=0.0367x    frame=  137 fps=4.2 q=37.0 size=       1kB time=00:00:01.18 bitrate=   5.0kbits/s speed=0.0363x    frame=  139 fps=4.1 q=36.0 size=       1kB time=00:00:01.22 bitrate=   4.8kbits/s speed=0.0359x    frame=  141 fps=4.1 q=36.0 size=       1kB time=00:00:01.26 bitrate=   4.7kbits/s speed=0.0363x    frame=  145 fps=4.0 q=36.0 size=       1kB time=00:00:01.34 bitrate=   4.4kbits/s speed=0.0367x    frame=  146 fps=3.9 q=36.0 size=       1kB time=00:00:01.36 bitrate=   4.3kbits/s speed=0.0362x    frame=  149 fps=3.9 q=36.0 size=       1kB time=00:00:01.42 bitrate=   4.1kbits/s speed=0.0371x    frame=  151 fps=3.9 q=36.0 size=       1kB time=00:00:01.46 bitrate=   4.0kbits/s speed=0.0373x    frame=  153 fps=3.8 q=36.0 size=       1kB time=00:00:01.50 bitrate=   3.9kbits/s speed=0.0374x    frame=  155 fps=3.8 q=36.0 size=       1kB time=00:00:01.54 bitrate=   3.8kbits/s speed=0.0374x    frame=  157 fps=3.7 q=36.0 size=       1kB time=00:00:01.58 bitrate=   3.7kbits/s speed=0.0371x    frame=  159 fps=3.7 q=36.0 size=       1kB time=00:00:01.62 bitrate=   3.6kbits/s speed=0.0374x    frame=  162 fps=3.7 q=36.0 size=       1kB time=00:00:01.68 bitrate=   3.5kbits/s speed=0.038x    frame=  163 fps=3.6 q=36.0 size=       1kB time=00:00:01.70 bitrate=   3.5kbits/s speed=0.0376x    frame=  165 fps=3.5 q=36.0 size=       1kB time=00:00:01.74 bitrate=   3.4kbits/s speed=0.0374x    frame=  167 fps=3.5 q=36.0 size=       1kB time=00:00:01.78 bitrate=   3.3kbits/s speed=0.0376x    frame=  170 fps=3.5 q=36.0 size=       1kB time=00:00:01.84 bitrate=   3.2kbits/s speed=0.0384x    frame=  171 fps=3.5 q=36.0 size=       1kB time=00:00:01.86 bitrate=   3.2kbits/s speed=0.0378x    frame=  173 fps=3.4 q=36.0 size=       1kB time=00:00:01.90 bitrate=   3.1kbits/s speed=0.0376x    frame=  176 fps=3.4 q=36.0 size=       1kB time=00:00:01.96 bitrate=   3.0kbits/s speed=0.0381x    frame=  178 fps=3.4 q=35.0 size=       1kB time=00:00:02.00 bitrate=   2.9kbits/s speed=0.0382x    frame=  179 fps=3.4 q=36.0 size=       1kB time=00:00:02.02 bitrate=   2.9kbits/s speed=0.038x    frame=  182 fps=3.3 q=36.0 size=       1kB time=00:00:02.08 bitrate=   2.8kbits/s speed=0.0383x    frame=  184 fps=3.3 q=36.0 size=       1kB time=00:00:02.12 bitrate=   2.8kbits/s speed=0.038x    frame=  185 fps=3.3 q=36.0 size=       1kB time=00:00:02.14 bitrate=   2.8kbits/s speed=0.038x    frame=  190 fps=3.3 q=35.0 size=       1kB time=00:00:02.24 bitrate=   2.6kbits/s speed=0.0386x    frame=  191 fps=3.3 q=35.0 size=       1kB time=00:00:02.26 bitrate=   2.6kbits/s speed=0.0385x    frame=  192 fps=3.2 q=35.0 size=       1kB time=00:00:02.28 bitrate=   2.6kbits/s speed=0.0383x    frame=  193 fps=3.2 q=35.0 size=       1kB time=00:00:02.30 bitrate=   2.6kbits/s speed=0.0383x    frame=  194 fps=3.2 q=35.0 size=       1kB time=00:00:02.32 bitrate=   2.5kbits/s speed=0.0382x    frame=  195 fps=3.2 q=35.0 size=       1kB time=00:00:02.34 bitrate=   2.5kbits/s speed=0.0381x    frame=  199 fps=3.2 q=35.0 size=       1kB time=00:00:02.42 bitrate=   2.4kbits/s speed=0.0388x    frame=  200 fps=3.1 q=35.0 size=       1kB time=00:00:02.44 bitrate=   2.4kbits/s speed=0.0383x    frame=  202 fps=3.1 q=35.0 size=       1kB time=00:00:02.48 bitrate=   2.4kbits/s speed=0.0386x    frame=  204 fps=3.1 q=35.0 size=       1kB time=00:00:02.52 bitrate=   2.3kbits/s speed=0.0386x    frame=  206 fps=3.1 q=35.0 size=       1kB time=00:00:02.56 bitrate=   2.3kbits/s speed=0.0386x    frame=  208 fps=3.1 q=35.0 size=       1kB time=00:00:02.60 bitrate=   2.3kbits/s speed=0.0387x    frame=  209 fps=3.1 q=35.0 size=       1kB time=00:00:02.62 bitrate=   2.2kbits/s speed=0.0385x    frame=  210 fps=3.1 q=35.0 size=       1kB time=00:00:02.64 bitrate=   2.2kbits/s speed=0.0384x    frame=  214 fps=3.1 q=35.0 size=       1kB time=00:00:02.72 bitrate=   2.2kbits/s speed=0.039x    frame=  215 fps=3.0 q=35.0 size=       1kB time=00:00:02.74 bitrate=   2.1kbits/s speed=0.0385x    frame=  217 fps=3.0 q=35.0 size=       1kB time=00:00:02.78 bitrate=   2.1kbits/s speed=0.0386x    frame=  219 fps=3.0 q=35.0 size=       1kB time=00:00:02.82 bitrate=   2.1kbits/s speed=0.0388x    frame=  220 fps=3.0 q=35.0 size=       1kB time=00:00:02.84 bitrate=   2.1kbits/s speed=0.0387x    frame=  221 fps=3.0 q=35.0 size=       1kB time=00:00:02.86 bitrate=   2.1kbits/s speed=0.0387x    frame=  223 fps=3.0 q=35.0 size=       1kB time=00:00:02.90 bitrate=   2.0kbits/s speed=0.0389x    frame=  224 fps=3.0 q=35.0 size=       1kB time=00:00:02.92 bitrate=   2.0kbits/s speed=0.0388x    frame=  226 fps=3.0 q=35.0 size=       1kB time=00:00:02.96 bitrate=   2.0kbits/s speed=0.0389x    frame=  227 fps=3.0 q=35.0 size=       1kB time=00:00:02.98 bitrate=   2.0kbits/s speed=0.0388x    frame=  228 fps=2.9 q=35.0 size=       1kB time=00:00:03.00 bitrate=   2.0kbits/s speed=0.0387x    frame=  230 fps=2.9 q=35.0 size=       1kB time=00:00:03.04 bitrate=   1.9kbits/s speed=0.0388x    frame=  233 fps=2.9 q=35.0 size=       1kB time=00:00:03.10 bitrate=   1.9kbits/s speed=0.0389x    frame=  234 fps=2.9 q=35.0 size=       1kB time=00:00:03.12 bitrate=   1.9kbits/s speed=0.0386x    frame=  239 fps=2.9 q=35.0 size=       1kB time=00:00:03.22 bitrate=   1.8kbits/s speed=0.039x    frame=  240 fps=2.9 q=35.0 size=       1kB time=00:00:03.24 bitrate=   1.8kbits/s speed=0.0388x    frame=  245 fps=2.9 q=35.0 size=       1kB time=00:00:03.34 bitrate=   1.8kbits/s speed=0.0396x    frame=  246 fps=2.9 q=35.0 size=       1kB time=00:00:03.36 bitrate=   1.8kbits/s speed=0.039x    frame=  248 fps=2.8 q=35.0 size=       1kB time=00:00:03.40 bitrate=   1.7kbits/s speed=0.039x    frame=  251 fps=2.9 q=35.0 size=       1kB time=00:00:03.46 bitrate=   1.7kbits/s speed=0.0393x    frame=  252 fps=2.8 q=35.0 size=       1kB time=00:00:03.48 bitrate=   1.7kbits/s speed=0.0392x    frame=  254 fps=2.8 q=35.0 size=       1kB time=00:00:03.52 bitrate=   1.7kbits/s speed=0.0392x    frame=  258 fps=2.8 q=35.0 size=       1kB time=00:00:03.60 bitrate=   1.6kbits/s speed=0.0395x    frame=  259 fps=2.8 q=35.0 size=       1kB time=00:00:03.62 bitrate=   1.6kbits/s speed=0.0395x    frame=  260 fps=2.8 q=35.0 size=       1kB time=00:00:03.64 bitrate=   1.6kbits/s speed=0.0393x    frame=  261 fps=2.8 q=35.0 size=       1kB time=00:00:03.66 bitrate=   1.6kbits/s speed=0.0392x    frame=  265 fps=2.8 q=35.0 size=       1kB time=00:00:03.74 bitrate=   1.6kbits/s speed=0.0398x    frame=  266 fps=2.8 q=35.0 size=       1kB time=00:00:03.76 bitrate=   1.6kbits/s speed=0.0395x    frame=  267 fps=2.8 q=35.0 size=       1kB time=00:00:03.78 bitrate=   1.6kbits/s speed=0.0394x    frame=  268 fps=2.8 q=35.0 size=       1kB time=00:00:03.80 bitrate=   1.5kbits/s speed=0.0394x    frame=  269 fps=2.8 q=35.0 size=       1kB time=00:00:03.82 bitrate=   1.5kbits/s speed=0.0392x    frame=  271 fps=2.8 q=35.0 size=       1kB time=00:00:03.86 bitrate=   1.5kbits/s speed=0.0393x    frame=  274 fps=2.8 q=35.0 size=       1kB time=00:00:03.92 bitrate=   1.5kbits/s speed=0.0397x    frame=  275 fps=2.8 q=35.0 size=       1kB time=00:00:03.94 bitrate=   1.5kbits/s speed=0.0394x    frame=  276 fps=2.7 q=35.0 size=       1kB time=00:00:03.96 bitrate=   1.5kbits/s speed=0.0394x    frame=  277 fps=2.7 q=35.0 size=       1kB time=00:00:03.98 bitrate=   1.5kbits/s speed=0.0393x    frame=  279 fps=2.7 q=35.0 size=       1kB time=00:00:04.02 bitrate=   1.5kbits/s speed=0.0394x    frame=  282 fps=2.7 q=35.0 size=       1kB time=00:00:04.08 bitrate=   1.4kbits/s speed=0.0397x    frame=  283 fps=2.7 q=35.0 size=       1kB time=00:00:04.10 bitrate=   1.4kbits/s speed=0.0394x    frame=  285 fps=2.7 q=35.0 size=       1kB time=00:00:04.14 bitrate=   1.4kbits/s speed=0.0394x    frame=  287 fps=2.7 q=35.0 size=       1kB time=00:00:04.18 bitrate=   1.4kbits/s speed=0.0396x    frame=  289 fps=2.7 q=35.0 size=       1kB time=00:00:04.22 bitrate=   1.4kbits/s speed=0.0396x    frame=  291 fps=2.7 q=35.0 size=       1kB time=00:00:04.26 bitrate=   1.4kbits/s speed=0.0395x    frame=  293 fps=2.7 q=35.0 size=       1kB time=00:00:04.30 bitrate=   1.4kbits/s speed=0.0395x    frame=  295 fps=2.7 q=35.0 size=       1kB time=00:00:04.34 bitrate=   1.4kbits/s speed=0.0397x    frame=  296 fps=2.7 q=35.0 size=       1kB time=00:00:04.36 bitrate=   1.4kbits/s speed=0.0396x    frame=  297 fps=2.7 q=35.0 size=       1kB time=00:00:04.38 bitrate=   1.3kbits/s speed=0.0395x    frame=  298 fps=2.7 q=35.0 size=       1kB time=00:00:04.40 bitrate=   1.3kbits/s speed=0.0394x    frame=  301 fps=2.7 q=35.0 size=       1kB time=00:00:04.46 bitrate=   1.3kbits/s speed=0.0396x    frame=  303 fps=2.7 q=35.0 size=       1kB time=00:00:04.50 bitrate=   1.3kbits/s speed=0.0395x    frame=  304 fps=2.6 q=35.0 size=       1kB time=00:00:04.52 bitrate=   1.3kbits/s speed=0.0394x    frame=  306 fps=2.7 q=35.0 size=       1kB time=00:00:04.56 bitrate=   1.3kbits/s speed=0.0396x    frame=  309 fps=2.6 q=35.0 size=       1kB time=00:00:04.62 bitrate=   1.3kbits/s speed=0.0396x    frame=  311 fps=2.6 q=35.0 size=       1kB time=00:00:04.66 bitrate=   1.3kbits/s speed=0.0394x    frame=  312 fps=2.6 q=35.0 size=       1kB time=00:00:04.68 bitrate=   1.3kbits/s speed=0.0394x    frame=  313 fps=2.6 q=35.0 size=       1kB time=00:00:04.70 bitrate=   1.3kbits/s speed=0.0388x    frame=  318 fps=2.6 q=35.0 size=       1kB time=00:00:04.80 bitrate=   1.2kbits/s speed=0.039x    frame=  320 fps=2.6 q=32.0 size=       1kB time=00:00:04.84 bitrate=   1.2kbits/s speed=0.0391x    frame=  324 fps=2.6 q=36.0 size=       1kB time=00:00:04.92 bitrate=   1.2kbits/s speed=0.0393x    frame=  326 fps=2.6 q=36.0 size=    3323kB time=00:00:04.96 bitrate=5487.5kbits/s speed=0.0393x    frame=  331 fps=2.6 q=36.0 size=    3323kB time=00:00:05.06 bitrate=5379.0kbits/s speed=0.0399x    frame=  333 fps=2.6 q=36.0 size=    3323kB time=00:00:05.10 bitrate=5336.9kbits/s speed=0.0399x    frame=  336 fps=2.6 q=36.0 size=    3323kB time=00:00:05.16 bitrate=5274.8kbits/s speed=0.0401x    frame=  338 fps=2.6 q=37.0 size=    3323kB time=00:00:05.20 bitrate=5234.3kbits/s speed=0.0403x    frame=  340 fps=2.6 q=37.0 size=    3323kB time=00:00:05.24 bitrate=5194.3kbits/s speed=0.0403x    frame=  345 fps=2.6 q=37.0 size=    3323kB time=00:00:05.34 bitrate=5097.1kbits/s speed=0.0405x    frame=  348 fps=2.6 q=37.0 size=    3323kB time=00:00:05.40 bitrate=5040.4kbits/s speed=0.0408x    frame=  349 fps=2.6 q=37.0 size=    3323kB time=00:00:05.42 bitrate=5021.8kbits/s speed=0.0408x    frame=  354 fps=2.6 q=37.0 size=    3323kB time=00:00:05.52 bitrate=4930.9kbits/s speed=0.0409x    frame=  356 fps=2.6 q=37.0 size=    3323kB time=00:00:05.56 bitrate=4895.4kbits/s speed=0.041x    frame=  360 fps=2.6 q=37.0 size=    3323kB time=00:00:05.64 bitrate=4826.0kbits/s speed=0.0412x    frame=  363 fps=2.6 q=37.0 size=    3323kB time=00:00:05.70 bitrate=4775.2kbits/s speed=0.041x    frame=  364 fps=2.6 q=37.0 size=    3323kB time=00:00:05.72 bitrate=4758.5kbits/s speed=0.041x    frame=  369 fps=2.6 q=37.0 size=    3323kB time=00:00:05.82 bitrate=4676.7kbits/s speed=0.0413x    frame=  370 fps=2.6 q=37.0 size=    3323kB time=00:00:05.84 bitrate=4660.7kbits/s speed=0.0412x    frame=  373 fps=2.6 q=37.0 size=    3323kB time=00:00:05.90 bitrate=4613.3kbits/s speed=0.0413x    frame=  374 fps=2.6 q=37.0 size=    3323kB time=00:00:05.92 bitrate=4597.8kbits/s speed=0.0413x    frame=  376 fps=2.6 q=37.0 size=    3323kB time=00:00:05.96 bitrate=4566.9kbits/s speed=0.0412x    frame=  378 fps=2.6 q=37.0 size=    3323kB time=00:00:06.00 bitrate=4536.5kbits/s speed=0.0413x    frame=  379 fps=2.6 q=37.0 size=    3323kB time=00:00:06.02 bitrate=4521.4kbits/s speed=0.0412x    frame=  380 fps=2.6 q=37.0 size=    3323kB time=00:00:06.04 bitrate=4506.4kbits/s speed=0.0411x    frame=  382 fps=2.6 q=37.0 size=    3323kB time=00:00:06.08 bitrate=4476.8kbits/s speed=0.0412x    frame=  384 fps=2.6 q=37.0 size=    3323kB time=00:00:06.12 bitrate=4447.5kbits/s speed=0.0412x    frame=  387 fps=2.6 q=37.0 size=    3323kB time=00:00:06.18 bitrate=4404.4kbits/s speed=0.0412x    frame=  388 fps=2.6 q=37.0 size=    3323kB time=00:00:06.20 bitrate=4390.2kbits/s speed=0.0411x    frame=  390 fps=2.6 q=37.0 size=    3323kB time=00:00:06.24 bitrate=4362.0kbits/s speed=0.0411x    frame=  392 fps=2.6 q=37.0 size=    3323kB time=00:00:06.28 bitrate=4334.2kbits/s speed=0.041x    frame=  395 fps=2.6 q=37.0 size=    3323kB time=00:00:06.34 bitrate=4293.2kbits/s speed=0.0412x    frame=  397 fps=2.6 q=37.0 size=    3323kB time=00:00:06.38 bitrate=4266.3kbits/s speed=0.0413x    frame=  398 fps=2.5 q=37.0 size=    3323kB time=00:00:06.40 bitrate=4253.0kbits/s speed=0.041x    frame=  401 fps=2.5 q=37.0 size=    3323kB time=00:00:06.46 bitrate=4213.5kbits/s speed=0.041x    frame=  404 fps=2.5 q=37.0 size=    3323kB time=00:00:06.52 bitrate=4174.7kbits/s speed=0.0411x    frame=  406 fps=2.5 q=37.0 size=    3323kB time=00:00:06.56 bitrate=4149.3kbits/s speed=0.041x    frame=  407 fps=2.5 q=37.0 size=    3323kB time=00:00:06.58 bitrate=4136.7kbits/s speed=0.0409x    frame=  410 fps=2.5 q=37.0 size=    3323kB time=00:00:06.64 bitrate=4099.3kbits/s speed=0.0408x    frame=  413 fps=2.5 q=36.0 size=    3323kB time=00:00:06.70 bitrate=4062.6kbits/s speed=0.0411x    frame=  416 fps=2.5 q=36.0 size=    3323kB time=00:00:06.76 bitrate=4026.5kbits/s speed=0.0409x    frame=  417 fps=2.5 q=36.0 size=    3323kB time=00:00:06.78 bitrate=4014.7kbits/s speed=0.0409x    frame=  419 fps=2.5 q=36.0 size=    3323kB time=00:00:06.82 bitrate=3991.1kbits/s speed=0.0408x    frame=  421 fps=2.5 q=36.0 size=    3323kB time=00:00:06.86 bitrate=3967.8kbits/s speed=0.0409x    frame=  424 fps=2.5 q=36.0 size=    3323kB time=00:00:06.92 bitrate=3933.4kbits/s speed=0.0411x    frame=  425 fps=2.5 q=36.0 size=    3323kB time=00:00:06.94 bitrate=3922.1kbits/s speed=0.0408x    frame=  427 fps=2.5 q=36.0 size=    3323kB time=00:00:06.98 bitrate=3899.6kbits/s speed=0.0408x    frame=  428 fps=2.5 q=36.0 size=    3323kB time=00:00:07.00 bitrate=3888.5kbits/s speed=0.0408x    frame=  431 fps=2.5 q=36.0 size=    3323kB time=00:00:07.06 bitrate=3855.5kbits/s speed=0.0409x    frame=  433 fps=2.5 q=36.0 size=    3323kB time=00:00:07.10 bitrate=3833.7kbits/s speed=0.0408x    frame=  434 fps=2.5 q=36.0 size=    3323kB time=00:00:07.12 bitrate=3823.0kbits/s speed=0.0407x    frame=  436 fps=2.5 q=36.0 size=    3323kB time=00:00:07.16 bitrate=3801.6kbits/s speed=0.0407x    frame=  437 fps=2.5 q=36.0 size=    3323kB time=00:00:07.18 bitrate=3791.0kbits/s speed=0.0407x    frame=  439 fps=2.5 q=36.0 size=    3323kB time=00:00:07.22 bitrate=3770.0kbits/s speed=0.0407x    frame=  442 fps=2.5 q=36.0 size=    3323kB time=00:00:07.28 bitrate=3739.0kbits/s speed=0.0407x    frame=  443 fps=2.5 q=36.0 size=    3323kB time=00:00:07.30 bitrate=3728.7kbits/s speed=0.0406x    frame=  446 fps=2.5 q=36.0 size=    3323kB time=00:00:07.36 bitrate=3698.3kbits/s speed=0.0406x    frame=  448 fps=2.5 q=36.0 size=    3323kB time=00:00:07.40 bitrate=3678.3kbits/s speed=0.0406x    frame=  451 fps=2.5 q=36.0 size=    3323kB time=00:00:07.46 bitrate=3648.8kbits/s speed=0.0408x    frame=  452 fps=2.5 q=36.0 size=    3323kB time=00:00:07.48 bitrate=3639.0kbits/s speed=0.0407x    frame=  453 fps=2.4 q=36.0 size=    3323kB time=00:00:07.50 bitrate=3629.3kbits/s speed=0.0405x    frame=  458 fps=2.5 q=36.0 size=    3323kB time=00:00:07.60 bitrate=3581.5kbits/s speed=0.0407x    frame=  459 fps=2.4 q=36.0 size=    3323kB time=00:00:07.62 bitrate=3572.2kbits/s speed=0.0405x    frame=  463 fps=2.4 q=36.0 size=    3323kB time=00:00:07.70 bitrate=3535.0kbits/s speed=0.0407x    frame=  464 fps=2.4 q=36.0 size=    3323kB time=00:00:07.72 bitrate=3525.9kbits/s speed=0.0405x    frame=  467 fps=2.4 q=36.0 size=    3323kB time=00:00:07.78 bitrate=3498.7kbits/s speed=0.0406x    frame=  470 fps=2.4 q=36.0 size=    3323kB time=00:00:07.84 bitrate=3471.9kbits/s speed=0.0405x    frame=  473 fps=2.4 q=36.0 size=    3323kB time=00:00:07.90 bitrate=3445.6kbits/s speed=0.0406x    frame=  474 fps=2.4 q=36.0 size=    3323kB time=00:00:07.92 bitrate=3436.9kbits/s speed=0.0405x    frame=  476 fps=2.4 q=36.0 size=    3323kB time=00:00:07.96 bitrate=3419.6kbits/s speed=0.0406x    frame=  479 fps=2.4 q=36.0 size=    3323kB time=00:00:08.02 bitrate=3394.0kbits/s speed=0.0405x    frame=  480 fps=2.4 q=36.0 size=    3323kB time=00:00:08.04 bitrate=3385.6kbits/s speed=0.0404x    frame=  481 fps=2.4 q=36.0 size=    3323kB time=00:00:08.06 bitrate=3377.2kbits/s speed=0.0404x    frame=  485 fps=2.4 q=36.0 size=    3323kB time=00:00:08.14 bitrate=3344.0kbits/s speed=0.0407x    frame=  486 fps=2.4 q=36.0 size=    3323kB time=00:00:08.16 bitrate=3335.8kbits/s speed=0.0404x    frame=  489 fps=2.4 q=36.0 size=    3323kB time=00:00:08.22 bitrate=3311.4kbits/s speed=0.0405x    frame=  490 fps=2.4 q=36.0 size=    3323kB time=00:00:08.24 bitrate=3303.4kbits/s speed=0.0405x    frame=  492 fps=2.4 q=36.0 size=    3323kB time=00:00:08.28 bitrate=3287.4kbits/s speed=0.0404x    frame=  493 fps=2.4 q=36.0 size=    3323kB time=00:00:08.30 bitrate=3279.5kbits/s speed=0.0404x    frame=  496 fps=2.4 q=36.0 size=    3323kB time=00:00:08.36 bitrate=3256.0kbits/s speed=0.0404x    frame=  497 fps=2.4 q=36.0 size=    3323kB time=00:00:08.38 bitrate=3248.2kbits/s speed=0.0404x    frame=  500 fps=2.1 q=-1.0 Lsize=    7428kB time=00:00:09.94 bitrate=6121.4kbits/s speed=0.0408x    
video:7424kB audio:0kB subtitle:0kB other streams:0kB global headers:0kB muxing overhead: 0.058601%
bench: utime=923.948s
bench: maxrss=3689180kB
[libx264 @ 0x3ee4120] frame I:3     Avg QP:33.16  size:290918
[libx264 @ 0x3ee4120] frame P:63    Avg QP:35.36  size: 38275
[libx264 @ 0x3ee4120] frame B:434   Avg QP:37.92  size:  9948
[libx264 @ 0x3ee4120] consecutive B-frames:  0.8%  0.0%  0.0%  1.6%  4.0%  3.6% 11.2% 17.6% 61.2%
[libx264 @ 0x3ee4120] mb I  I16..4: 34.8% 58.6%  6.6%
[libx264 @ 0x3ee4120] mb P  I16..4:  0.0%  0.1%  0.0%  P16..4: 32.7%  2.6%  5.7%  0.0%  0.0%    skip:58.8%
[libx264 @ 0x3ee4120] mb B  I16..4:  0.0%  0.0%  0.0%  B16..8: 35.9%  0.1%  0.0%  direct: 0.0%  skip:63.9%  L0:49.9% L1:50.0% BI: 0.0%
[libx264 @ 0x3ee4120] final ratefactor: 28.29
[libx264 @ 0x3ee4120] 8x8 transform intra:59.0% inter:73.5%
[libx264 @ 0x3ee4120] direct mvs  spatial:99.1% temporal:0.9%
[libx264 @ 0x3ee4120] coded y,uvDC,uvAC intra: 67.7% 47.3% 25.1% inter: 0.9% 0.7% 0.0%
[libx264 @ 0x3ee4120] i16 v,h,dc,p:  9% 22%  8% 61%
[libx264 @ 0x3ee4120] i8 v,h,dc,ddl,ddr,vr,hd,vl,hu:  5%  7%  3% 13% 20% 13% 19%  8% 12%
[libx264 @ 0x3ee4120] i4 v,h,dc,ddl,ddr,vr,hd,vl,hu:  3%  4%  2% 14% 19% 13% 20%  9% 16%
[libx264 @ 0x3ee4120] i8c dc,h,v,p: 18% 56% 15% 11%
[libx264 @ 0x3ee4120] Weighted P-Frames: Y:3.2% UV:1.6%
[libx264 @ 0x3ee4120] ref P L0: 64.6% 21.8%  7.8%  1.4%  1.2%  0.8%  0.8%  0.2%  0.2%  0.2%  0.2%  0.2%  0.2%  0.2%  0.2%  0.1%
[libx264 @ 0x3ee4120] ref B L0: 85.5%  5.7%  4.1%  0.9%  0.8%  0.8%  0.8%  0.2%  0.2%  0.2%  0.2%  0.2%  0.2%  0.2%  0.0%
[libx264 @ 0x3ee4120] ref B L1: 96.0%  4.0%
[libx264 @ 0x3ee4120] kb/s:6081.21
